<mxfile host="Electron" modified="2024-07-25T01:38:52.826Z" agent="Mozilla/5.0 (Windows NT 10.0; Win64; x64) AppleWebKit/537.36 (KHTML, like Gecko) draw.io/23.1.5 Chrome/120.0.6099.109 Electron/28.1.0 Safari/537.36" etag="FQYPLbs-4v3jjxNmZtgZ" version="23.1.5" type="device">
  <diagram name="第 1 页" id="DGuScUqG852WtrDvt6sy">
    <mxGraphModel dx="2812" dy="2137" grid="1" gridSize="10" guides="1" tooltips="1" connect="1" arrows="1" fold="1" page="1" pageScale="1" pageWidth="827" pageHeight="1169" math="0" shadow="0">
      <root>
        <mxCell id="0" />
        <mxCell id="1" parent="0" />
        <mxCell id="NSBeQm-b7BAjYkCCzyBj-1" value="" style="shape=table;startSize=0;container=1;collapsible=0;childLayout=tableLayout;" vertex="1" parent="1">
          <mxGeometry x="660" y="280" width="120" height="280" as="geometry" />
        </mxCell>
        <mxCell id="NSBeQm-b7BAjYkCCzyBj-2" value="" style="shape=tableRow;horizontal=0;startSize=0;swimlaneHead=0;swimlaneBody=0;strokeColor=inherit;top=0;left=0;bottom=0;right=0;collapsible=0;dropTarget=0;fillColor=none;points=[[0,0.5],[1,0.5]];portConstraint=eastwest;" vertex="1" parent="NSBeQm-b7BAjYkCCzyBj-1">
          <mxGeometry width="120" height="40" as="geometry" />
        </mxCell>
        <mxCell id="NSBeQm-b7BAjYkCCzyBj-3" value="BlockHeader" style="shape=partialRectangle;html=1;whiteSpace=wrap;connectable=0;strokeColor=#82b366;overflow=hidden;fillColor=#d5e8d4;top=0;left=0;bottom=0;right=0;pointerEvents=1;" vertex="1" parent="NSBeQm-b7BAjYkCCzyBj-2">
          <mxGeometry width="120" height="40" as="geometry">
            <mxRectangle width="120" height="40" as="alternateBounds" />
          </mxGeometry>
        </mxCell>
        <mxCell id="NSBeQm-b7BAjYkCCzyBj-4" value="" style="shape=tableRow;horizontal=0;startSize=0;swimlaneHead=0;swimlaneBody=0;strokeColor=inherit;top=0;left=0;bottom=0;right=0;collapsible=0;dropTarget=0;fillColor=none;points=[[0,0.5],[1,0.5]];portConstraint=eastwest;" vertex="1" parent="NSBeQm-b7BAjYkCCzyBj-1">
          <mxGeometry y="40" width="120" height="40" as="geometry" />
        </mxCell>
        <mxCell id="NSBeQm-b7BAjYkCCzyBj-5" value="" style="shape=partialRectangle;html=1;whiteSpace=wrap;connectable=0;strokeColor=inherit;overflow=hidden;fillColor=none;top=0;left=0;bottom=0;right=0;pointerEvents=1;" vertex="1" parent="NSBeQm-b7BAjYkCCzyBj-4">
          <mxGeometry width="120" height="40" as="geometry">
            <mxRectangle width="120" height="40" as="alternateBounds" />
          </mxGeometry>
        </mxCell>
        <mxCell id="NSBeQm-b7BAjYkCCzyBj-6" value="" style="shape=tableRow;horizontal=0;startSize=0;swimlaneHead=0;swimlaneBody=0;strokeColor=inherit;top=0;left=0;bottom=0;right=0;collapsible=0;dropTarget=0;fillColor=none;points=[[0,0.5],[1,0.5]];portConstraint=eastwest;" vertex="1" parent="NSBeQm-b7BAjYkCCzyBj-1">
          <mxGeometry y="80" width="120" height="40" as="geometry" />
        </mxCell>
        <mxCell id="NSBeQm-b7BAjYkCCzyBj-7" value="" style="shape=partialRectangle;html=1;whiteSpace=wrap;connectable=0;strokeColor=inherit;overflow=hidden;fillColor=none;top=0;left=0;bottom=0;right=0;pointerEvents=1;" vertex="1" parent="NSBeQm-b7BAjYkCCzyBj-6">
          <mxGeometry width="120" height="40" as="geometry">
            <mxRectangle width="120" height="40" as="alternateBounds" />
          </mxGeometry>
        </mxCell>
        <mxCell id="NSBeQm-b7BAjYkCCzyBj-8" value="" style="shape=tableRow;horizontal=0;startSize=0;swimlaneHead=0;swimlaneBody=0;strokeColor=inherit;top=0;left=0;bottom=0;right=0;collapsible=0;dropTarget=0;fillColor=none;points=[[0,0.5],[1,0.5]];portConstraint=eastwest;" vertex="1" parent="NSBeQm-b7BAjYkCCzyBj-1">
          <mxGeometry y="120" width="120" height="40" as="geometry" />
        </mxCell>
        <mxCell id="NSBeQm-b7BAjYkCCzyBj-9" value="" style="shape=partialRectangle;html=1;whiteSpace=wrap;connectable=0;strokeColor=inherit;overflow=hidden;fillColor=none;top=0;left=0;bottom=0;right=0;pointerEvents=1;" vertex="1" parent="NSBeQm-b7BAjYkCCzyBj-8">
          <mxGeometry width="120" height="40" as="geometry">
            <mxRectangle width="120" height="40" as="alternateBounds" />
          </mxGeometry>
        </mxCell>
        <mxCell id="NSBeQm-b7BAjYkCCzyBj-10" value="" style="shape=tableRow;horizontal=0;startSize=0;swimlaneHead=0;swimlaneBody=0;strokeColor=inherit;top=0;left=0;bottom=0;right=0;collapsible=0;dropTarget=0;fillColor=none;points=[[0,0.5],[1,0.5]];portConstraint=eastwest;" vertex="1" parent="NSBeQm-b7BAjYkCCzyBj-1">
          <mxGeometry y="160" width="120" height="40" as="geometry" />
        </mxCell>
        <mxCell id="NSBeQm-b7BAjYkCCzyBj-11" value="" style="shape=partialRectangle;html=1;whiteSpace=wrap;connectable=0;strokeColor=inherit;overflow=hidden;fillColor=none;top=0;left=0;bottom=0;right=0;pointerEvents=1;" vertex="1" parent="NSBeQm-b7BAjYkCCzyBj-10">
          <mxGeometry width="120" height="40" as="geometry">
            <mxRectangle width="120" height="40" as="alternateBounds" />
          </mxGeometry>
        </mxCell>
        <mxCell id="NSBeQm-b7BAjYkCCzyBj-12" value="" style="shape=tableRow;horizontal=0;startSize=0;swimlaneHead=0;swimlaneBody=0;strokeColor=inherit;top=0;left=0;bottom=0;right=0;collapsible=0;dropTarget=0;fillColor=none;points=[[0,0.5],[1,0.5]];portConstraint=eastwest;" vertex="1" parent="NSBeQm-b7BAjYkCCzyBj-1">
          <mxGeometry y="200" width="120" height="40" as="geometry" />
        </mxCell>
        <mxCell id="NSBeQm-b7BAjYkCCzyBj-13" value="" style="shape=partialRectangle;html=1;whiteSpace=wrap;connectable=0;strokeColor=inherit;overflow=hidden;fillColor=none;top=0;left=0;bottom=0;right=0;pointerEvents=1;" vertex="1" parent="NSBeQm-b7BAjYkCCzyBj-12">
          <mxGeometry width="120" height="40" as="geometry">
            <mxRectangle width="120" height="40" as="alternateBounds" />
          </mxGeometry>
        </mxCell>
        <mxCell id="NSBeQm-b7BAjYkCCzyBj-14" value="" style="shape=tableRow;horizontal=0;startSize=0;swimlaneHead=0;swimlaneBody=0;strokeColor=inherit;top=0;left=0;bottom=0;right=0;collapsible=0;dropTarget=0;fillColor=none;points=[[0,0.5],[1,0.5]];portConstraint=eastwest;" vertex="1" parent="NSBeQm-b7BAjYkCCzyBj-1">
          <mxGeometry y="240" width="120" height="40" as="geometry" />
        </mxCell>
        <mxCell id="NSBeQm-b7BAjYkCCzyBj-15" value="" style="shape=partialRectangle;html=1;whiteSpace=wrap;connectable=0;strokeColor=inherit;overflow=hidden;fillColor=none;top=0;left=0;bottom=0;right=0;pointerEvents=1;" vertex="1" parent="NSBeQm-b7BAjYkCCzyBj-14">
          <mxGeometry width="120" height="40" as="geometry">
            <mxRectangle width="120" height="40" as="alternateBounds" />
          </mxGeometry>
        </mxCell>
        <mxCell id="NSBeQm-b7BAjYkCCzyBj-130" value="&amp;nbsp;next_free" style="html=1;align=left;spacingLeft=2;endArrow=block;rounded=0;edgeStyle=orthogonalEdgeStyle;curved=0;rounded=0;" edge="1" parent="NSBeQm-b7BAjYkCCzyBj-1" source="NSBeQm-b7BAjYkCCzyBj-4" target="NSBeQm-b7BAjYkCCzyBj-6">
          <mxGeometry relative="1" as="geometry">
            <mxPoint x="120" y="70" as="sourcePoint" />
            <Array as="points">
              <mxPoint x="150" y="70" />
              <mxPoint x="150" y="90" />
            </Array>
            <mxPoint x="120" y="90" as="targetPoint" />
          </mxGeometry>
        </mxCell>
        <mxCell id="NSBeQm-b7BAjYkCCzyBj-131" value="&amp;nbsp;next_free" style="html=1;align=left;spacingLeft=2;endArrow=block;rounded=0;edgeStyle=orthogonalEdgeStyle;curved=0;rounded=0;" edge="1" parent="NSBeQm-b7BAjYkCCzyBj-1" source="NSBeQm-b7BAjYkCCzyBj-6" target="NSBeQm-b7BAjYkCCzyBj-8">
          <mxGeometry relative="1" as="geometry">
            <mxPoint x="120" y="110" as="sourcePoint" />
            <Array as="points">
              <mxPoint x="150" y="110" />
              <mxPoint x="150" y="130" />
            </Array>
            <mxPoint x="120" y="130" as="targetPoint" />
          </mxGeometry>
        </mxCell>
        <mxCell id="NSBeQm-b7BAjYkCCzyBj-132" value="&amp;nbsp;next_free" style="html=1;align=left;spacingLeft=2;endArrow=block;rounded=0;edgeStyle=orthogonalEdgeStyle;curved=0;rounded=0;" edge="1" parent="NSBeQm-b7BAjYkCCzyBj-1" source="NSBeQm-b7BAjYkCCzyBj-8" target="NSBeQm-b7BAjYkCCzyBj-10">
          <mxGeometry relative="1" as="geometry">
            <mxPoint x="120" y="150" as="sourcePoint" />
            <Array as="points">
              <mxPoint x="150" y="150" />
              <mxPoint x="150" y="170" />
            </Array>
            <mxPoint x="120" y="170" as="targetPoint" />
          </mxGeometry>
        </mxCell>
        <mxCell id="NSBeQm-b7BAjYkCCzyBj-133" value="&amp;nbsp;next_free" style="html=1;align=left;spacingLeft=2;endArrow=block;rounded=0;edgeStyle=orthogonalEdgeStyle;curved=0;rounded=0;" edge="1" parent="NSBeQm-b7BAjYkCCzyBj-1" source="NSBeQm-b7BAjYkCCzyBj-10" target="NSBeQm-b7BAjYkCCzyBj-12">
          <mxGeometry relative="1" as="geometry">
            <mxPoint x="120" y="190" as="sourcePoint" />
            <Array as="points">
              <mxPoint x="150" y="190" />
              <mxPoint x="150" y="210" />
            </Array>
            <mxPoint x="120" y="210" as="targetPoint" />
          </mxGeometry>
        </mxCell>
        <mxCell id="NSBeQm-b7BAjYkCCzyBj-134" value="&amp;nbsp;next_free" style="html=1;align=left;spacingLeft=2;endArrow=block;rounded=0;edgeStyle=orthogonalEdgeStyle;curved=0;rounded=0;" edge="1" parent="NSBeQm-b7BAjYkCCzyBj-1" source="NSBeQm-b7BAjYkCCzyBj-12" target="NSBeQm-b7BAjYkCCzyBj-14">
          <mxGeometry relative="1" as="geometry">
            <mxPoint x="120" y="230" as="sourcePoint" />
            <Array as="points">
              <mxPoint x="150" y="230" />
              <mxPoint x="150" y="250" />
            </Array>
            <mxPoint x="120" y="250" as="targetPoint" />
          </mxGeometry>
        </mxCell>
        <mxCell id="NSBeQm-b7BAjYkCCzyBj-16" value="" style="shape=table;startSize=0;container=1;collapsible=0;childLayout=tableLayout;" vertex="1" parent="1">
          <mxGeometry x="410" y="280" width="120" height="280" as="geometry" />
        </mxCell>
        <mxCell id="NSBeQm-b7BAjYkCCzyBj-17" value="" style="shape=tableRow;horizontal=0;startSize=0;swimlaneHead=0;swimlaneBody=0;strokeColor=inherit;top=0;left=0;bottom=0;right=0;collapsible=0;dropTarget=0;fillColor=none;points=[[0,0.5],[1,0.5]];portConstraint=eastwest;" vertex="1" parent="NSBeQm-b7BAjYkCCzyBj-16">
          <mxGeometry width="120" height="40" as="geometry" />
        </mxCell>
        <mxCell id="NSBeQm-b7BAjYkCCzyBj-18" value="BlockHeader" style="shape=partialRectangle;html=1;whiteSpace=wrap;connectable=0;strokeColor=#82b366;overflow=hidden;fillColor=#d5e8d4;top=0;left=0;bottom=0;right=0;pointerEvents=1;" vertex="1" parent="NSBeQm-b7BAjYkCCzyBj-17">
          <mxGeometry width="120" height="40" as="geometry">
            <mxRectangle width="120" height="40" as="alternateBounds" />
          </mxGeometry>
        </mxCell>
        <mxCell id="NSBeQm-b7BAjYkCCzyBj-19" value="" style="shape=tableRow;horizontal=0;startSize=0;swimlaneHead=0;swimlaneBody=0;strokeColor=inherit;top=0;left=0;bottom=0;right=0;collapsible=0;dropTarget=0;fillColor=none;points=[[0,0.5],[1,0.5]];portConstraint=eastwest;" vertex="1" parent="NSBeQm-b7BAjYkCCzyBj-16">
          <mxGeometry y="40" width="120" height="40" as="geometry" />
        </mxCell>
        <mxCell id="NSBeQm-b7BAjYkCCzyBj-20" value="" style="shape=partialRectangle;html=1;whiteSpace=wrap;connectable=0;strokeColor=inherit;overflow=hidden;fillColor=none;top=0;left=0;bottom=0;right=0;pointerEvents=1;" vertex="1" parent="NSBeQm-b7BAjYkCCzyBj-19">
          <mxGeometry width="120" height="40" as="geometry">
            <mxRectangle width="120" height="40" as="alternateBounds" />
          </mxGeometry>
        </mxCell>
        <mxCell id="NSBeQm-b7BAjYkCCzyBj-21" value="" style="shape=tableRow;horizontal=0;startSize=0;swimlaneHead=0;swimlaneBody=0;strokeColor=inherit;top=0;left=0;bottom=0;right=0;collapsible=0;dropTarget=0;fillColor=none;points=[[0,0.5],[1,0.5]];portConstraint=eastwest;" vertex="1" parent="NSBeQm-b7BAjYkCCzyBj-16">
          <mxGeometry y="80" width="120" height="40" as="geometry" />
        </mxCell>
        <mxCell id="NSBeQm-b7BAjYkCCzyBj-22" value="" style="shape=partialRectangle;html=1;whiteSpace=wrap;connectable=0;strokeColor=inherit;overflow=hidden;fillColor=none;top=0;left=0;bottom=0;right=0;pointerEvents=1;" vertex="1" parent="NSBeQm-b7BAjYkCCzyBj-21">
          <mxGeometry width="120" height="40" as="geometry">
            <mxRectangle width="120" height="40" as="alternateBounds" />
          </mxGeometry>
        </mxCell>
        <mxCell id="NSBeQm-b7BAjYkCCzyBj-23" value="" style="shape=tableRow;horizontal=0;startSize=0;swimlaneHead=0;swimlaneBody=0;strokeColor=inherit;top=0;left=0;bottom=0;right=0;collapsible=0;dropTarget=0;fillColor=none;points=[[0,0.5],[1,0.5]];portConstraint=eastwest;" vertex="1" parent="NSBeQm-b7BAjYkCCzyBj-16">
          <mxGeometry y="120" width="120" height="40" as="geometry" />
        </mxCell>
        <mxCell id="NSBeQm-b7BAjYkCCzyBj-24" value="" style="shape=partialRectangle;html=1;whiteSpace=wrap;connectable=0;strokeColor=inherit;overflow=hidden;fillColor=none;top=0;left=0;bottom=0;right=0;pointerEvents=1;" vertex="1" parent="NSBeQm-b7BAjYkCCzyBj-23">
          <mxGeometry width="120" height="40" as="geometry">
            <mxRectangle width="120" height="40" as="alternateBounds" />
          </mxGeometry>
        </mxCell>
        <mxCell id="NSBeQm-b7BAjYkCCzyBj-25" value="" style="shape=tableRow;horizontal=0;startSize=0;swimlaneHead=0;swimlaneBody=0;strokeColor=inherit;top=0;left=0;bottom=0;right=0;collapsible=0;dropTarget=0;fillColor=none;points=[[0,0.5],[1,0.5]];portConstraint=eastwest;" vertex="1" parent="NSBeQm-b7BAjYkCCzyBj-16">
          <mxGeometry y="160" width="120" height="40" as="geometry" />
        </mxCell>
        <mxCell id="NSBeQm-b7BAjYkCCzyBj-26" value="" style="shape=partialRectangle;html=1;whiteSpace=wrap;connectable=0;strokeColor=inherit;overflow=hidden;fillColor=none;top=0;left=0;bottom=0;right=0;pointerEvents=1;" vertex="1" parent="NSBeQm-b7BAjYkCCzyBj-25">
          <mxGeometry width="120" height="40" as="geometry">
            <mxRectangle width="120" height="40" as="alternateBounds" />
          </mxGeometry>
        </mxCell>
        <mxCell id="NSBeQm-b7BAjYkCCzyBj-27" value="" style="shape=tableRow;horizontal=0;startSize=0;swimlaneHead=0;swimlaneBody=0;strokeColor=inherit;top=0;left=0;bottom=0;right=0;collapsible=0;dropTarget=0;fillColor=none;points=[[0,0.5],[1,0.5]];portConstraint=eastwest;" vertex="1" parent="NSBeQm-b7BAjYkCCzyBj-16">
          <mxGeometry y="200" width="120" height="40" as="geometry" />
        </mxCell>
        <mxCell id="NSBeQm-b7BAjYkCCzyBj-28" value="" style="shape=partialRectangle;html=1;whiteSpace=wrap;connectable=0;strokeColor=inherit;overflow=hidden;fillColor=none;top=0;left=0;bottom=0;right=0;pointerEvents=1;" vertex="1" parent="NSBeQm-b7BAjYkCCzyBj-27">
          <mxGeometry width="120" height="40" as="geometry">
            <mxRectangle width="120" height="40" as="alternateBounds" />
          </mxGeometry>
        </mxCell>
        <mxCell id="NSBeQm-b7BAjYkCCzyBj-29" value="" style="shape=tableRow;horizontal=0;startSize=0;swimlaneHead=0;swimlaneBody=0;strokeColor=inherit;top=0;left=0;bottom=0;right=0;collapsible=0;dropTarget=0;fillColor=none;points=[[0,0.5],[1,0.5]];portConstraint=eastwest;" vertex="1" parent="NSBeQm-b7BAjYkCCzyBj-16">
          <mxGeometry y="240" width="120" height="40" as="geometry" />
        </mxCell>
        <mxCell id="NSBeQm-b7BAjYkCCzyBj-30" value="" style="shape=partialRectangle;html=1;whiteSpace=wrap;connectable=0;strokeColor=inherit;overflow=hidden;fillColor=none;top=0;left=0;bottom=0;right=0;pointerEvents=1;" vertex="1" parent="NSBeQm-b7BAjYkCCzyBj-29">
          <mxGeometry width="120" height="40" as="geometry">
            <mxRectangle width="120" height="40" as="alternateBounds" />
          </mxGeometry>
        </mxCell>
        <mxCell id="NSBeQm-b7BAjYkCCzyBj-125" value="&amp;nbsp;next_free" style="html=1;align=left;spacingLeft=2;endArrow=block;rounded=0;edgeStyle=orthogonalEdgeStyle;curved=0;rounded=0;" edge="1" parent="NSBeQm-b7BAjYkCCzyBj-16" source="NSBeQm-b7BAjYkCCzyBj-19" target="NSBeQm-b7BAjYkCCzyBj-21">
          <mxGeometry relative="1" as="geometry">
            <mxPoint x="120" y="70" as="sourcePoint" />
            <Array as="points">
              <mxPoint x="150" y="70" />
              <mxPoint x="150" y="90" />
            </Array>
            <mxPoint x="120" y="90" as="targetPoint" />
          </mxGeometry>
        </mxCell>
        <mxCell id="NSBeQm-b7BAjYkCCzyBj-126" value="&amp;nbsp;next_free" style="html=1;align=left;spacingLeft=2;endArrow=block;rounded=0;edgeStyle=orthogonalEdgeStyle;curved=0;rounded=0;" edge="1" parent="NSBeQm-b7BAjYkCCzyBj-16" source="NSBeQm-b7BAjYkCCzyBj-21" target="NSBeQm-b7BAjYkCCzyBj-23">
          <mxGeometry relative="1" as="geometry">
            <mxPoint x="120" y="110" as="sourcePoint" />
            <Array as="points">
              <mxPoint x="150" y="110" />
              <mxPoint x="150" y="130" />
            </Array>
            <mxPoint x="120" y="130" as="targetPoint" />
          </mxGeometry>
        </mxCell>
        <mxCell id="NSBeQm-b7BAjYkCCzyBj-127" value="&amp;nbsp;next_free" style="html=1;align=left;spacingLeft=2;endArrow=block;rounded=0;edgeStyle=orthogonalEdgeStyle;curved=0;rounded=0;" edge="1" parent="NSBeQm-b7BAjYkCCzyBj-16" source="NSBeQm-b7BAjYkCCzyBj-23" target="NSBeQm-b7BAjYkCCzyBj-25">
          <mxGeometry relative="1" as="geometry">
            <mxPoint x="120" y="150" as="sourcePoint" />
            <Array as="points">
              <mxPoint x="150" y="150" />
              <mxPoint x="150" y="170" />
            </Array>
            <mxPoint x="120" y="170" as="targetPoint" />
          </mxGeometry>
        </mxCell>
        <mxCell id="NSBeQm-b7BAjYkCCzyBj-128" value="&amp;nbsp;next_free" style="html=1;align=left;spacingLeft=2;endArrow=block;rounded=0;edgeStyle=orthogonalEdgeStyle;curved=0;rounded=0;" edge="1" parent="NSBeQm-b7BAjYkCCzyBj-16" source="NSBeQm-b7BAjYkCCzyBj-25" target="NSBeQm-b7BAjYkCCzyBj-27">
          <mxGeometry relative="1" as="geometry">
            <mxPoint x="120" y="190" as="sourcePoint" />
            <Array as="points">
              <mxPoint x="150" y="190" />
              <mxPoint x="150" y="210" />
            </Array>
            <mxPoint x="120" y="210" as="targetPoint" />
          </mxGeometry>
        </mxCell>
        <mxCell id="NSBeQm-b7BAjYkCCzyBj-129" value="&amp;nbsp;next_free" style="html=1;align=left;spacingLeft=2;endArrow=block;rounded=0;edgeStyle=orthogonalEdgeStyle;curved=0;rounded=0;" edge="1" parent="NSBeQm-b7BAjYkCCzyBj-16" source="NSBeQm-b7BAjYkCCzyBj-27" target="NSBeQm-b7BAjYkCCzyBj-29">
          <mxGeometry relative="1" as="geometry">
            <mxPoint x="120" y="230" as="sourcePoint" />
            <Array as="points">
              <mxPoint x="150" y="230" />
              <mxPoint x="150" y="250" />
            </Array>
            <mxPoint x="120" y="250" as="targetPoint" />
          </mxGeometry>
        </mxCell>
        <mxCell id="NSBeQm-b7BAjYkCCzyBj-31" value="" style="shape=table;startSize=0;container=1;collapsible=0;childLayout=tableLayout;" vertex="1" parent="1">
          <mxGeometry x="160" y="280" width="120" height="280" as="geometry" />
        </mxCell>
        <mxCell id="NSBeQm-b7BAjYkCCzyBj-32" value="" style="shape=tableRow;horizontal=0;startSize=0;swimlaneHead=0;swimlaneBody=0;strokeColor=inherit;top=0;left=0;bottom=0;right=0;collapsible=0;dropTarget=0;fillColor=none;points=[[0,0.5],[1,0.5]];portConstraint=eastwest;" vertex="1" parent="NSBeQm-b7BAjYkCCzyBj-31">
          <mxGeometry width="120" height="40" as="geometry" />
        </mxCell>
        <mxCell id="NSBeQm-b7BAjYkCCzyBj-33" value="BlockHeader" style="shape=partialRectangle;html=1;whiteSpace=wrap;connectable=0;strokeColor=#82b366;overflow=hidden;fillColor=#d5e8d4;top=0;left=0;bottom=0;right=0;pointerEvents=1;" vertex="1" parent="NSBeQm-b7BAjYkCCzyBj-32">
          <mxGeometry width="120" height="40" as="geometry">
            <mxRectangle width="120" height="40" as="alternateBounds" />
          </mxGeometry>
        </mxCell>
        <mxCell id="NSBeQm-b7BAjYkCCzyBj-34" value="" style="shape=tableRow;horizontal=0;startSize=0;swimlaneHead=0;swimlaneBody=0;strokeColor=inherit;top=0;left=0;bottom=0;right=0;collapsible=0;dropTarget=0;fillColor=none;points=[[0,0.5],[1,0.5]];portConstraint=eastwest;" vertex="1" parent="NSBeQm-b7BAjYkCCzyBj-31">
          <mxGeometry y="40" width="120" height="40" as="geometry" />
        </mxCell>
        <mxCell id="NSBeQm-b7BAjYkCCzyBj-35" value="" style="shape=partialRectangle;html=1;whiteSpace=wrap;connectable=0;strokeColor=inherit;overflow=hidden;fillColor=none;top=0;left=0;bottom=0;right=0;pointerEvents=1;" vertex="1" parent="NSBeQm-b7BAjYkCCzyBj-34">
          <mxGeometry width="120" height="40" as="geometry">
            <mxRectangle width="120" height="40" as="alternateBounds" />
          </mxGeometry>
        </mxCell>
        <mxCell id="NSBeQm-b7BAjYkCCzyBj-36" value="" style="shape=tableRow;horizontal=0;startSize=0;swimlaneHead=0;swimlaneBody=0;strokeColor=inherit;top=0;left=0;bottom=0;right=0;collapsible=0;dropTarget=0;fillColor=none;points=[[0,0.5],[1,0.5]];portConstraint=eastwest;" vertex="1" parent="NSBeQm-b7BAjYkCCzyBj-31">
          <mxGeometry y="80" width="120" height="40" as="geometry" />
        </mxCell>
        <mxCell id="NSBeQm-b7BAjYkCCzyBj-37" value="" style="shape=partialRectangle;html=1;whiteSpace=wrap;connectable=0;strokeColor=inherit;overflow=hidden;fillColor=none;top=0;left=0;bottom=0;right=0;pointerEvents=1;" vertex="1" parent="NSBeQm-b7BAjYkCCzyBj-36">
          <mxGeometry width="120" height="40" as="geometry">
            <mxRectangle width="120" height="40" as="alternateBounds" />
          </mxGeometry>
        </mxCell>
        <mxCell id="NSBeQm-b7BAjYkCCzyBj-38" value="" style="shape=tableRow;horizontal=0;startSize=0;swimlaneHead=0;swimlaneBody=0;strokeColor=inherit;top=0;left=0;bottom=0;right=0;collapsible=0;dropTarget=0;fillColor=none;points=[[0,0.5],[1,0.5]];portConstraint=eastwest;" vertex="1" parent="NSBeQm-b7BAjYkCCzyBj-31">
          <mxGeometry y="120" width="120" height="40" as="geometry" />
        </mxCell>
        <mxCell id="NSBeQm-b7BAjYkCCzyBj-39" value="" style="shape=partialRectangle;html=1;whiteSpace=wrap;connectable=0;strokeColor=inherit;overflow=hidden;fillColor=none;top=0;left=0;bottom=0;right=0;pointerEvents=1;" vertex="1" parent="NSBeQm-b7BAjYkCCzyBj-38">
          <mxGeometry width="120" height="40" as="geometry">
            <mxRectangle width="120" height="40" as="alternateBounds" />
          </mxGeometry>
        </mxCell>
        <mxCell id="NSBeQm-b7BAjYkCCzyBj-40" value="" style="shape=tableRow;horizontal=0;startSize=0;swimlaneHead=0;swimlaneBody=0;strokeColor=inherit;top=0;left=0;bottom=0;right=0;collapsible=0;dropTarget=0;fillColor=none;points=[[0,0.5],[1,0.5]];portConstraint=eastwest;" vertex="1" parent="NSBeQm-b7BAjYkCCzyBj-31">
          <mxGeometry y="160" width="120" height="40" as="geometry" />
        </mxCell>
        <mxCell id="NSBeQm-b7BAjYkCCzyBj-41" value="" style="shape=partialRectangle;html=1;whiteSpace=wrap;connectable=0;strokeColor=inherit;overflow=hidden;fillColor=none;top=0;left=0;bottom=0;right=0;pointerEvents=1;" vertex="1" parent="NSBeQm-b7BAjYkCCzyBj-40">
          <mxGeometry width="120" height="40" as="geometry">
            <mxRectangle width="120" height="40" as="alternateBounds" />
          </mxGeometry>
        </mxCell>
        <mxCell id="NSBeQm-b7BAjYkCCzyBj-42" value="" style="shape=tableRow;horizontal=0;startSize=0;swimlaneHead=0;swimlaneBody=0;strokeColor=inherit;top=0;left=0;bottom=0;right=0;collapsible=0;dropTarget=0;fillColor=none;points=[[0,0.5],[1,0.5]];portConstraint=eastwest;" vertex="1" parent="NSBeQm-b7BAjYkCCzyBj-31">
          <mxGeometry y="200" width="120" height="40" as="geometry" />
        </mxCell>
        <mxCell id="NSBeQm-b7BAjYkCCzyBj-43" value="" style="shape=partialRectangle;html=1;whiteSpace=wrap;connectable=0;strokeColor=inherit;overflow=hidden;fillColor=none;top=0;left=0;bottom=0;right=0;pointerEvents=1;" vertex="1" parent="NSBeQm-b7BAjYkCCzyBj-42">
          <mxGeometry width="120" height="40" as="geometry">
            <mxRectangle width="120" height="40" as="alternateBounds" />
          </mxGeometry>
        </mxCell>
        <mxCell id="NSBeQm-b7BAjYkCCzyBj-44" value="" style="shape=tableRow;horizontal=0;startSize=0;swimlaneHead=0;swimlaneBody=0;strokeColor=inherit;top=0;left=0;bottom=0;right=0;collapsible=0;dropTarget=0;fillColor=none;points=[[0,0.5],[1,0.5]];portConstraint=eastwest;" vertex="1" parent="NSBeQm-b7BAjYkCCzyBj-31">
          <mxGeometry y="240" width="120" height="40" as="geometry" />
        </mxCell>
        <mxCell id="NSBeQm-b7BAjYkCCzyBj-45" value="" style="shape=partialRectangle;html=1;whiteSpace=wrap;connectable=0;strokeColor=inherit;overflow=hidden;fillColor=none;top=0;left=0;bottom=0;right=0;pointerEvents=1;" vertex="1" parent="NSBeQm-b7BAjYkCCzyBj-44">
          <mxGeometry width="120" height="40" as="geometry">
            <mxRectangle width="120" height="40" as="alternateBounds" />
          </mxGeometry>
        </mxCell>
        <mxCell id="NSBeQm-b7BAjYkCCzyBj-119" value="&amp;nbsp;next_free" style="html=1;align=left;spacingLeft=2;endArrow=block;rounded=0;edgeStyle=orthogonalEdgeStyle;curved=0;rounded=0;" edge="1" target="NSBeQm-b7BAjYkCCzyBj-36" parent="NSBeQm-b7BAjYkCCzyBj-31" source="NSBeQm-b7BAjYkCCzyBj-34">
          <mxGeometry relative="1" as="geometry">
            <mxPoint x="170" y="70" as="sourcePoint" />
            <Array as="points">
              <mxPoint x="150" y="70" />
              <mxPoint x="150" y="90" />
            </Array>
            <mxPoint x="175" y="100" as="targetPoint" />
          </mxGeometry>
        </mxCell>
        <mxCell id="NSBeQm-b7BAjYkCCzyBj-120" value="&amp;nbsp;next_free" style="html=1;align=left;spacingLeft=2;endArrow=block;rounded=0;edgeStyle=orthogonalEdgeStyle;curved=0;rounded=0;" edge="1" parent="NSBeQm-b7BAjYkCCzyBj-31" source="NSBeQm-b7BAjYkCCzyBj-36" target="NSBeQm-b7BAjYkCCzyBj-38">
          <mxGeometry relative="1" as="geometry">
            <mxPoint x="120" y="110" as="sourcePoint" />
            <Array as="points">
              <mxPoint x="150" y="110" />
              <mxPoint x="150" y="130" />
            </Array>
            <mxPoint x="120" y="130" as="targetPoint" />
          </mxGeometry>
        </mxCell>
        <mxCell id="NSBeQm-b7BAjYkCCzyBj-122" value="&amp;nbsp;next_free" style="html=1;align=left;spacingLeft=2;endArrow=block;rounded=0;edgeStyle=orthogonalEdgeStyle;curved=0;rounded=0;" edge="1" parent="NSBeQm-b7BAjYkCCzyBj-31" source="NSBeQm-b7BAjYkCCzyBj-38" target="NSBeQm-b7BAjYkCCzyBj-40">
          <mxGeometry relative="1" as="geometry">
            <mxPoint x="120" y="150" as="sourcePoint" />
            <Array as="points">
              <mxPoint x="150" y="150" />
              <mxPoint x="150" y="170" />
            </Array>
            <mxPoint x="120" y="170" as="targetPoint" />
          </mxGeometry>
        </mxCell>
        <mxCell id="NSBeQm-b7BAjYkCCzyBj-123" value="&amp;nbsp;next_free" style="html=1;align=left;spacingLeft=2;endArrow=block;rounded=0;edgeStyle=orthogonalEdgeStyle;curved=0;rounded=0;" edge="1" parent="NSBeQm-b7BAjYkCCzyBj-31" source="NSBeQm-b7BAjYkCCzyBj-40" target="NSBeQm-b7BAjYkCCzyBj-42">
          <mxGeometry relative="1" as="geometry">
            <mxPoint x="120" y="190" as="sourcePoint" />
            <Array as="points">
              <mxPoint x="150" y="190" />
              <mxPoint x="150" y="210" />
            </Array>
            <mxPoint x="120" y="210" as="targetPoint" />
          </mxGeometry>
        </mxCell>
        <mxCell id="NSBeQm-b7BAjYkCCzyBj-124" value="&amp;nbsp;next_free" style="html=1;align=left;spacingLeft=2;endArrow=block;rounded=0;edgeStyle=orthogonalEdgeStyle;curved=0;rounded=0;" edge="1" parent="NSBeQm-b7BAjYkCCzyBj-31" source="NSBeQm-b7BAjYkCCzyBj-42" target="NSBeQm-b7BAjYkCCzyBj-44">
          <mxGeometry relative="1" as="geometry">
            <mxPoint x="120" y="230" as="sourcePoint" />
            <Array as="points">
              <mxPoint x="150" y="230" />
              <mxPoint x="150" y="250" />
            </Array>
            <mxPoint x="120" y="250" as="targetPoint" />
          </mxGeometry>
        </mxCell>
        <mxCell id="NSBeQm-b7BAjYkCCzyBj-46" value="&lt;h1&gt;Block&lt;/h1&gt;&lt;p style=&quot;line-height: 120%;&quot;&gt;&lt;font face=&quot;Helvetica&quot; style=&quot;font-size: 12px;&quot;&gt;系统调用malloc申请的较大的未初始化存储空间。&lt;/font&gt;&lt;/p&gt;&lt;p style=&quot;line-height: 120%;&quot;&gt;&lt;font face=&quot;EFF1_rmkKnC-gxCpHqBh&quot; style=&quot;font-size: 12px;&quot;&gt;将这些存储空间连接到对应的FreeSpaceHeader下后即可参与存储空间分配。&lt;/font&gt;&lt;/p&gt;&lt;p style=&quot;line-height: 120%;&quot;&gt;&lt;span style=&quot;background-color: initial;&quot;&gt;&lt;font face=&quot;EFF1_rmkKnC-gxCpHqBh&quot; style=&quot;font-size: 12px;&quot;&gt;每一个Block只能对应一个FreeSpaceHeader&lt;/font&gt;&lt;/span&gt;&lt;/p&gt;" style="text;html=1;spacing=5;spacingTop=-20;whiteSpace=wrap;overflow=hidden;rounded=0;fillColor=#dae8fc;strokeColor=#6c8ebf;" vertex="1" parent="1">
          <mxGeometry x="920" y="360" width="297.5" height="140" as="geometry" />
        </mxCell>
        <mxCell id="NSBeQm-b7BAjYkCCzyBj-47" value="" style="endArrow=classic;html=1;rounded=0;" edge="1" parent="1" source="NSBeQm-b7BAjYkCCzyBj-32" target="NSBeQm-b7BAjYkCCzyBj-17">
          <mxGeometry width="50" height="50" relative="1" as="geometry">
            <mxPoint x="500" y="420" as="sourcePoint" />
            <mxPoint x="550" y="370" as="targetPoint" />
          </mxGeometry>
        </mxCell>
        <mxCell id="NSBeQm-b7BAjYkCCzyBj-49" value="prev_block" style="edgeLabel;html=1;align=center;verticalAlign=middle;resizable=0;points=[];" vertex="1" connectable="0" parent="NSBeQm-b7BAjYkCCzyBj-47">
          <mxGeometry x="-0.1333" relative="1" as="geometry">
            <mxPoint as="offset" />
          </mxGeometry>
        </mxCell>
        <mxCell id="NSBeQm-b7BAjYkCCzyBj-48" value="" style="endArrow=classic;html=1;rounded=0;" edge="1" parent="1" source="NSBeQm-b7BAjYkCCzyBj-17" target="NSBeQm-b7BAjYkCCzyBj-2">
          <mxGeometry width="50" height="50" relative="1" as="geometry">
            <mxPoint x="500" y="420" as="sourcePoint" />
            <mxPoint x="550" y="370" as="targetPoint" />
          </mxGeometry>
        </mxCell>
        <mxCell id="NSBeQm-b7BAjYkCCzyBj-50" value="prev_block" style="edgeLabel;html=1;align=center;verticalAlign=middle;resizable=0;points=[];" vertex="1" connectable="0" parent="NSBeQm-b7BAjYkCCzyBj-48">
          <mxGeometry x="-0.0222" y="-1" relative="1" as="geometry">
            <mxPoint as="offset" />
          </mxGeometry>
        </mxCell>
        <mxCell id="NSBeQm-b7BAjYkCCzyBj-60" value="" style="edgeStyle=orthogonalEdgeStyle;rounded=0;orthogonalLoop=1;jettySize=auto;html=1;" edge="1" parent="1" source="NSBeQm-b7BAjYkCCzyBj-52" target="NSBeQm-b7BAjYkCCzyBj-57">
          <mxGeometry relative="1" as="geometry" />
        </mxCell>
        <mxCell id="NSBeQm-b7BAjYkCCzyBj-78" value="" style="edgeStyle=orthogonalEdgeStyle;rounded=0;orthogonalLoop=1;jettySize=auto;html=1;entryX=0;entryY=0.5;entryDx=0;entryDy=0;" edge="1" parent="1" source="NSBeQm-b7BAjYkCCzyBj-52" target="NSBeQm-b7BAjYkCCzyBj-34">
          <mxGeometry relative="1" as="geometry">
            <mxPoint x="220" y="130" as="targetPoint" />
          </mxGeometry>
        </mxCell>
        <mxCell id="NSBeQm-b7BAjYkCCzyBj-52" value="" style="shape=table;startSize=0;container=1;collapsible=0;childLayout=tableLayout;fillColor=#ffe6cc;strokeColor=#d79b00;" vertex="1" parent="1">
          <mxGeometry x="110" y="10" width="60" height="40" as="geometry" />
        </mxCell>
        <mxCell id="NSBeQm-b7BAjYkCCzyBj-53" value="" style="shape=tableRow;horizontal=0;startSize=0;swimlaneHead=0;swimlaneBody=0;strokeColor=inherit;top=0;left=0;bottom=0;right=0;collapsible=0;dropTarget=0;fillColor=none;points=[[0,0.5],[1,0.5]];portConstraint=eastwest;" vertex="1" parent="NSBeQm-b7BAjYkCCzyBj-52">
          <mxGeometry width="60" height="40" as="geometry" />
        </mxCell>
        <mxCell id="NSBeQm-b7BAjYkCCzyBj-54" value="8" style="shape=partialRectangle;html=1;whiteSpace=wrap;connectable=0;strokeColor=inherit;overflow=hidden;fillColor=none;top=0;left=0;bottom=0;right=0;pointerEvents=1;" vertex="1" parent="NSBeQm-b7BAjYkCCzyBj-53">
          <mxGeometry width="60" height="40" as="geometry">
            <mxRectangle width="60" height="40" as="alternateBounds" />
          </mxGeometry>
        </mxCell>
        <mxCell id="NSBeQm-b7BAjYkCCzyBj-64" value="" style="edgeStyle=orthogonalEdgeStyle;rounded=0;orthogonalLoop=1;jettySize=auto;html=1;" edge="1" parent="1" source="NSBeQm-b7BAjYkCCzyBj-57" target="NSBeQm-b7BAjYkCCzyBj-61">
          <mxGeometry relative="1" as="geometry" />
        </mxCell>
        <mxCell id="NSBeQm-b7BAjYkCCzyBj-82" value="" style="edgeStyle=orthogonalEdgeStyle;rounded=0;orthogonalLoop=1;jettySize=auto;html=1;" edge="1" parent="1" source="NSBeQm-b7BAjYkCCzyBj-57" target="NSBeQm-b7BAjYkCCzyBj-79">
          <mxGeometry relative="1" as="geometry" />
        </mxCell>
        <mxCell id="NSBeQm-b7BAjYkCCzyBj-57" value="" style="shape=table;startSize=0;container=1;collapsible=0;childLayout=tableLayout;fillColor=#ffe6cc;strokeColor=#d79b00;" vertex="1" parent="1">
          <mxGeometry x="220" y="10" width="60" height="40" as="geometry" />
        </mxCell>
        <mxCell id="NSBeQm-b7BAjYkCCzyBj-58" value="" style="shape=tableRow;horizontal=0;startSize=0;swimlaneHead=0;swimlaneBody=0;strokeColor=inherit;top=0;left=0;bottom=0;right=0;collapsible=0;dropTarget=0;fillColor=none;points=[[0,0.5],[1,0.5]];portConstraint=eastwest;" vertex="1" parent="NSBeQm-b7BAjYkCCzyBj-57">
          <mxGeometry width="60" height="40" as="geometry" />
        </mxCell>
        <mxCell id="NSBeQm-b7BAjYkCCzyBj-59" value="12" style="shape=partialRectangle;html=1;whiteSpace=wrap;connectable=0;strokeColor=inherit;overflow=hidden;fillColor=none;top=0;left=0;bottom=0;right=0;pointerEvents=1;" vertex="1" parent="NSBeQm-b7BAjYkCCzyBj-58">
          <mxGeometry width="60" height="40" as="geometry">
            <mxRectangle width="60" height="40" as="alternateBounds" />
          </mxGeometry>
        </mxCell>
        <mxCell id="NSBeQm-b7BAjYkCCzyBj-68" value="" style="edgeStyle=orthogonalEdgeStyle;rounded=0;orthogonalLoop=1;jettySize=auto;html=1;" edge="1" parent="1" source="NSBeQm-b7BAjYkCCzyBj-61" target="NSBeQm-b7BAjYkCCzyBj-65">
          <mxGeometry relative="1" as="geometry" />
        </mxCell>
        <mxCell id="NSBeQm-b7BAjYkCCzyBj-86" value="" style="edgeStyle=orthogonalEdgeStyle;rounded=0;orthogonalLoop=1;jettySize=auto;html=1;entryX=0;entryY=0.5;entryDx=0;entryDy=0;" edge="1" parent="1" source="NSBeQm-b7BAjYkCCzyBj-61" target="NSBeQm-b7BAjYkCCzyBj-19">
          <mxGeometry relative="1" as="geometry">
            <mxPoint x="500" y="130" as="targetPoint" />
          </mxGeometry>
        </mxCell>
        <mxCell id="NSBeQm-b7BAjYkCCzyBj-61" value="" style="shape=table;startSize=0;container=1;collapsible=0;childLayout=tableLayout;fillColor=#ffe6cc;strokeColor=#d79b00;" vertex="1" parent="1">
          <mxGeometry x="360" y="10" width="60" height="40" as="geometry" />
        </mxCell>
        <mxCell id="NSBeQm-b7BAjYkCCzyBj-62" value="" style="shape=tableRow;horizontal=0;startSize=0;swimlaneHead=0;swimlaneBody=0;strokeColor=inherit;top=0;left=0;bottom=0;right=0;collapsible=0;dropTarget=0;fillColor=none;points=[[0,0.5],[1,0.5]];portConstraint=eastwest;" vertex="1" parent="NSBeQm-b7BAjYkCCzyBj-61">
          <mxGeometry width="60" height="40" as="geometry" />
        </mxCell>
        <mxCell id="NSBeQm-b7BAjYkCCzyBj-63" value="16" style="shape=partialRectangle;html=1;whiteSpace=wrap;connectable=0;strokeColor=inherit;overflow=hidden;fillColor=none;top=0;left=0;bottom=0;right=0;pointerEvents=1;" vertex="1" parent="NSBeQm-b7BAjYkCCzyBj-62">
          <mxGeometry width="60" height="40" as="geometry">
            <mxRectangle width="60" height="40" as="alternateBounds" />
          </mxGeometry>
        </mxCell>
        <mxCell id="NSBeQm-b7BAjYkCCzyBj-74" value="" style="edgeStyle=orthogonalEdgeStyle;rounded=0;orthogonalLoop=1;jettySize=auto;html=1;" edge="1" parent="1" source="NSBeQm-b7BAjYkCCzyBj-65" target="NSBeQm-b7BAjYkCCzyBj-71">
          <mxGeometry relative="1" as="geometry" />
        </mxCell>
        <mxCell id="NSBeQm-b7BAjYkCCzyBj-90" value="" style="edgeStyle=orthogonalEdgeStyle;rounded=0;orthogonalLoop=1;jettySize=auto;html=1;entryX=0;entryY=0.5;entryDx=0;entryDy=0;" edge="1" parent="1" source="NSBeQm-b7BAjYkCCzyBj-65" target="NSBeQm-b7BAjYkCCzyBj-4">
          <mxGeometry relative="1" as="geometry">
            <mxPoint x="640" y="130" as="targetPoint" />
          </mxGeometry>
        </mxCell>
        <mxCell id="NSBeQm-b7BAjYkCCzyBj-65" value="" style="shape=table;startSize=0;container=1;collapsible=0;childLayout=tableLayout;fillColor=#ffe6cc;strokeColor=#d79b00;" vertex="1" parent="1">
          <mxGeometry x="610" y="10" width="60" height="40" as="geometry" />
        </mxCell>
        <mxCell id="NSBeQm-b7BAjYkCCzyBj-66" value="" style="shape=tableRow;horizontal=0;startSize=0;swimlaneHead=0;swimlaneBody=0;strokeColor=inherit;top=0;left=0;bottom=0;right=0;collapsible=0;dropTarget=0;fillColor=none;points=[[0,0.5],[1,0.5]];portConstraint=eastwest;" vertex="1" parent="NSBeQm-b7BAjYkCCzyBj-65">
          <mxGeometry width="60" height="40" as="geometry" />
        </mxCell>
        <mxCell id="NSBeQm-b7BAjYkCCzyBj-67" value="20" style="shape=partialRectangle;html=1;whiteSpace=wrap;connectable=0;strokeColor=inherit;overflow=hidden;fillColor=none;top=0;left=0;bottom=0;right=0;pointerEvents=1;" vertex="1" parent="NSBeQm-b7BAjYkCCzyBj-66">
          <mxGeometry width="60" height="40" as="geometry">
            <mxRectangle width="60" height="40" as="alternateBounds" />
          </mxGeometry>
        </mxCell>
        <mxCell id="NSBeQm-b7BAjYkCCzyBj-71" value="" style="shape=table;startSize=0;container=1;collapsible=0;childLayout=tableLayout;" vertex="1" parent="1">
          <mxGeometry x="750" y="10" width="60" height="40" as="geometry" />
        </mxCell>
        <mxCell id="NSBeQm-b7BAjYkCCzyBj-72" value="" style="shape=tableRow;horizontal=0;startSize=0;swimlaneHead=0;swimlaneBody=0;strokeColor=inherit;top=0;left=0;bottom=0;right=0;collapsible=0;dropTarget=0;fillColor=none;points=[[0,0.5],[1,0.5]];portConstraint=eastwest;" vertex="1" parent="NSBeQm-b7BAjYkCCzyBj-71">
          <mxGeometry width="60" height="40" as="geometry" />
        </mxCell>
        <mxCell id="NSBeQm-b7BAjYkCCzyBj-73" value="nullptr" style="shape=partialRectangle;html=1;whiteSpace=wrap;connectable=0;strokeColor=inherit;overflow=hidden;fillColor=none;top=0;left=0;bottom=0;right=0;pointerEvents=1;" vertex="1" parent="NSBeQm-b7BAjYkCCzyBj-72">
          <mxGeometry width="60" height="40" as="geometry">
            <mxRectangle width="60" height="40" as="alternateBounds" />
          </mxGeometry>
        </mxCell>
        <mxCell id="NSBeQm-b7BAjYkCCzyBj-79" value="" style="shape=table;startSize=0;container=1;collapsible=0;childLayout=tableLayout;" vertex="1" parent="1">
          <mxGeometry x="220" y="120" width="60" height="40" as="geometry" />
        </mxCell>
        <mxCell id="NSBeQm-b7BAjYkCCzyBj-80" value="" style="shape=tableRow;horizontal=0;startSize=0;swimlaneHead=0;swimlaneBody=0;strokeColor=inherit;top=0;left=0;bottom=0;right=0;collapsible=0;dropTarget=0;fillColor=none;points=[[0,0.5],[1,0.5]];portConstraint=eastwest;" vertex="1" parent="NSBeQm-b7BAjYkCCzyBj-79">
          <mxGeometry width="60" height="40" as="geometry" />
        </mxCell>
        <mxCell id="NSBeQm-b7BAjYkCCzyBj-81" value="nullptr" style="shape=partialRectangle;html=1;whiteSpace=wrap;connectable=0;strokeColor=inherit;overflow=hidden;fillColor=none;top=0;left=0;bottom=0;right=0;pointerEvents=1;" vertex="1" parent="NSBeQm-b7BAjYkCCzyBj-80">
          <mxGeometry width="60" height="40" as="geometry">
            <mxRectangle width="60" height="40" as="alternateBounds" />
          </mxGeometry>
        </mxCell>
        <mxCell id="NSBeQm-b7BAjYkCCzyBj-105" value="" style="endArrow=classic;html=1;rounded=0;" edge="1" parent="1" source="NSBeQm-b7BAjYkCCzyBj-92" target="NSBeQm-b7BAjYkCCzyBj-53">
          <mxGeometry width="50" height="50" relative="1" as="geometry">
            <mxPoint x="540" y="70" as="sourcePoint" />
            <mxPoint x="590" y="20" as="targetPoint" />
          </mxGeometry>
        </mxCell>
        <mxCell id="NSBeQm-b7BAjYkCCzyBj-106" value="" style="endArrow=classic;html=1;rounded=0;" edge="1" parent="1" source="NSBeQm-b7BAjYkCCzyBj-95" target="NSBeQm-b7BAjYkCCzyBj-66">
          <mxGeometry width="50" height="50" relative="1" as="geometry">
            <mxPoint x="540" y="70" as="sourcePoint" />
            <mxPoint x="590" y="20" as="targetPoint" />
          </mxGeometry>
        </mxCell>
        <mxCell id="NSBeQm-b7BAjYkCCzyBj-108" value="&lt;h1&gt;FreeSpace&lt;/h1&gt;&lt;p&gt;保存空闲存储空间FreeSpace的单向链表。可以按照所需存储空间的大小灵活地插入、取出对应的存储空间。&lt;/p&gt;&lt;p&gt;FreeSpace维护链表的头结点free_space_head、尾结点free_space_rear以及当前链表所能保存的最大存储空间的大小max_size_of_free_space&lt;/p&gt;" style="text;html=1;spacing=5;spacingTop=-20;whiteSpace=wrap;overflow=hidden;rounded=0;fillColor=#dae8fc;strokeColor=#6c8ebf;fontFamily=Helvetica;fontSize=12;fontColor=default;" vertex="1" parent="1">
          <mxGeometry x="930" y="40" width="297.5" height="140" as="geometry" />
        </mxCell>
        <mxCell id="NSBeQm-b7BAjYkCCzyBj-142" value="FreeSpace" style="swimlane;fillColor=#fff2cc;strokeColor=#FFE599;strokeWidth=3;" vertex="1" parent="1">
          <mxGeometry x="40" y="-250" width="730" height="200" as="geometry">
            <mxRectangle x="70" y="-260" width="100" height="30" as="alternateBounds" />
          </mxGeometry>
        </mxCell>
        <mxCell id="NSBeQm-b7BAjYkCCzyBj-91" value="" style="shape=table;startSize=0;container=1;collapsible=0;childLayout=tableLayout;" vertex="1" parent="NSBeQm-b7BAjYkCCzyBj-142">
          <mxGeometry x="40" y="90" width="120" height="40" as="geometry" />
        </mxCell>
        <mxCell id="NSBeQm-b7BAjYkCCzyBj-92" value="" style="shape=tableRow;horizontal=0;startSize=0;swimlaneHead=0;swimlaneBody=0;strokeColor=inherit;top=0;left=0;bottom=0;right=0;collapsible=0;dropTarget=0;fillColor=none;points=[[0,0.5],[1,0.5]];portConstraint=eastwest;" vertex="1" parent="NSBeQm-b7BAjYkCCzyBj-91">
          <mxGeometry width="120" height="40" as="geometry" />
        </mxCell>
        <mxCell id="NSBeQm-b7BAjYkCCzyBj-93" value="free_space_head" style="shape=partialRectangle;html=1;whiteSpace=wrap;connectable=0;strokeColor=inherit;overflow=hidden;fillColor=none;top=0;left=0;bottom=0;right=0;pointerEvents=1;" vertex="1" parent="NSBeQm-b7BAjYkCCzyBj-92">
          <mxGeometry width="120" height="40" as="geometry">
            <mxRectangle width="120" height="40" as="alternateBounds" />
          </mxGeometry>
        </mxCell>
        <mxCell id="NSBeQm-b7BAjYkCCzyBj-137" value="" style="shape=table;startSize=0;container=1;collapsible=0;childLayout=tableLayout;" vertex="1" parent="NSBeQm-b7BAjYkCCzyBj-142">
          <mxGeometry x="285" y="90" width="160" height="40" as="geometry" />
        </mxCell>
        <mxCell id="NSBeQm-b7BAjYkCCzyBj-138" value="" style="shape=tableRow;horizontal=0;startSize=0;swimlaneHead=0;swimlaneBody=0;strokeColor=inherit;top=0;left=0;bottom=0;right=0;collapsible=0;dropTarget=0;fillColor=none;points=[[0,0.5],[1,0.5]];portConstraint=eastwest;" vertex="1" parent="NSBeQm-b7BAjYkCCzyBj-137">
          <mxGeometry width="160" height="40" as="geometry" />
        </mxCell>
        <mxCell id="NSBeQm-b7BAjYkCCzyBj-139" value="max_size_of_free_space" style="shape=partialRectangle;html=1;whiteSpace=wrap;connectable=0;strokeColor=inherit;overflow=hidden;fillColor=none;top=0;left=0;bottom=0;right=0;pointerEvents=1;" vertex="1" parent="NSBeQm-b7BAjYkCCzyBj-138">
          <mxGeometry width="160" height="40" as="geometry">
            <mxRectangle width="160" height="40" as="alternateBounds" />
          </mxGeometry>
        </mxCell>
        <mxCell id="NSBeQm-b7BAjYkCCzyBj-94" value="" style="shape=table;startSize=0;container=1;collapsible=0;childLayout=tableLayout;" vertex="1" parent="NSBeQm-b7BAjYkCCzyBj-142">
          <mxGeometry x="540" y="90" width="120" height="40" as="geometry" />
        </mxCell>
        <mxCell id="NSBeQm-b7BAjYkCCzyBj-95" value="" style="shape=tableRow;horizontal=0;startSize=0;swimlaneHead=0;swimlaneBody=0;strokeColor=inherit;top=0;left=0;bottom=0;right=0;collapsible=0;dropTarget=0;fillColor=none;points=[[0,0.5],[1,0.5]];portConstraint=eastwest;" vertex="1" parent="NSBeQm-b7BAjYkCCzyBj-94">
          <mxGeometry width="120" height="40" as="geometry" />
        </mxCell>
        <mxCell id="NSBeQm-b7BAjYkCCzyBj-96" value="free_space_rear" style="shape=partialRectangle;html=1;whiteSpace=wrap;connectable=0;strokeColor=inherit;overflow=hidden;fillColor=none;top=0;left=0;bottom=0;right=0;pointerEvents=1;" vertex="1" parent="NSBeQm-b7BAjYkCCzyBj-95">
          <mxGeometry width="120" height="40" as="geometry">
            <mxRectangle width="120" height="40" as="alternateBounds" />
          </mxGeometry>
        </mxCell>
        <mxCell id="NSBeQm-b7BAjYkCCzyBj-143" value="" style="shape=table;startSize=0;container=1;collapsible=0;childLayout=tableLayout;" vertex="1" parent="1">
          <mxGeometry x="-210" y="-160" width="120" height="40" as="geometry" />
        </mxCell>
        <mxCell id="NSBeQm-b7BAjYkCCzyBj-144" value="" style="shape=tableRow;horizontal=0;startSize=0;swimlaneHead=0;swimlaneBody=0;strokeColor=inherit;top=0;left=0;bottom=0;right=0;collapsible=0;dropTarget=0;fillColor=none;points=[[0,0.5],[1,0.5]];portConstraint=eastwest;" vertex="1" parent="NSBeQm-b7BAjYkCCzyBj-143">
          <mxGeometry width="120" height="40" as="geometry" />
        </mxCell>
        <mxCell id="NSBeQm-b7BAjYkCCzyBj-145" value="current_block" style="shape=partialRectangle;html=1;whiteSpace=wrap;connectable=0;strokeColor=inherit;overflow=hidden;fillColor=none;top=0;left=0;bottom=0;right=0;pointerEvents=1;" vertex="1" parent="NSBeQm-b7BAjYkCCzyBj-144">
          <mxGeometry width="120" height="40" as="geometry">
            <mxRectangle width="120" height="40" as="alternateBounds" />
          </mxGeometry>
        </mxCell>
        <mxCell id="NSBeQm-b7BAjYkCCzyBj-147" value="" style="html=1;align=left;spacingLeft=2;endArrow=block;rounded=0;edgeStyle=orthogonalEdgeStyle;curved=0;rounded=0;" edge="1" target="NSBeQm-b7BAjYkCCzyBj-32" parent="1" source="NSBeQm-b7BAjYkCCzyBj-144">
          <mxGeometry relative="1" as="geometry">
            <mxPoint x="80" y="80" as="sourcePoint" />
            <Array as="points">
              <mxPoint x="-170" y="300" />
            </Array>
            <mxPoint x="85" y="110" as="targetPoint" />
          </mxGeometry>
        </mxCell>
        <mxCell id="NSBeQm-b7BAjYkCCzyBj-148" value="MemoryPool" style="swimlane;fillColor=#e1d5e7;strokeColor=#E6D0DE;fillStyle=auto;strokeWidth=3;" vertex="1" parent="1">
          <mxGeometry x="-300" y="-300" width="1150" height="290" as="geometry" />
        </mxCell>
        <mxCell id="NSBeQm-b7BAjYkCCzyBj-149" value="&lt;h1&gt;MemoryPool&lt;/h1&gt;&lt;p&gt;内存池核心。实&lt;span style=&quot;background-color: initial;&quot;&gt;现以字节为基本单位的内存管理。&lt;/span&gt;&lt;/p&gt;&lt;p&gt;&lt;span style=&quot;background-color: initial;&quot;&gt;并提供相应接口供其他自定义类型使用&lt;/span&gt;&lt;/p&gt;" style="text;html=1;spacing=5;spacingTop=-20;whiteSpace=wrap;overflow=hidden;rounded=0;fillColor=#dae8fc;strokeColor=#6c8ebf;fontFamily=Helvetica;fontSize=12;fontColor=default;" vertex="1" parent="1">
          <mxGeometry x="930" y="-220" width="297.5" height="100" as="geometry" />
        </mxCell>
        <mxCell id="NSBeQm-b7BAjYkCCzyBj-150" value="" style="endArrow=block;dashed=1;endFill=0;endSize=12;html=1;rounded=0;" edge="1" parent="1" source="NSBeQm-b7BAjYkCCzyBj-152" target="NSBeQm-b7BAjYkCCzyBj-148">
          <mxGeometry width="160" relative="1" as="geometry">
            <mxPoint x="280" y="-580" as="sourcePoint" />
            <mxPoint x="400" y="-180" as="targetPoint" />
          </mxGeometry>
        </mxCell>
        <mxCell id="NSBeQm-b7BAjYkCCzyBj-151" value="" style="shape=table;startSize=0;container=1;collapsible=0;childLayout=tableLayout;fillColor=#f5f5f5;fontColor=#333333;strokeColor=#666666;" vertex="1" parent="1">
          <mxGeometry x="215" y="-430" width="120" height="40" as="geometry" />
        </mxCell>
        <mxCell id="NSBeQm-b7BAjYkCCzyBj-152" value="" style="shape=tableRow;horizontal=0;startSize=0;swimlaneHead=0;swimlaneBody=0;strokeColor=inherit;top=0;left=0;bottom=0;right=0;collapsible=0;dropTarget=0;fillColor=none;points=[[0,0.5],[1,0.5]];portConstraint=eastwest;" vertex="1" parent="NSBeQm-b7BAjYkCCzyBj-151">
          <mxGeometry width="120" height="40" as="geometry" />
        </mxCell>
        <mxCell id="NSBeQm-b7BAjYkCCzyBj-153" value="memory_pool" style="shape=partialRectangle;html=1;whiteSpace=wrap;connectable=0;strokeColor=inherit;overflow=hidden;fillColor=none;top=0;left=0;bottom=0;right=0;pointerEvents=1;" vertex="1" parent="NSBeQm-b7BAjYkCCzyBj-152">
          <mxGeometry width="120" height="40" as="geometry">
            <mxRectangle width="120" height="40" as="alternateBounds" />
          </mxGeometry>
        </mxCell>
        <mxCell id="NSBeQm-b7BAjYkCCzyBj-154" value="Use" style="endArrow=open;endSize=12;dashed=1;html=1;rounded=0;" edge="1" parent="1" source="NSBeQm-b7BAjYkCCzyBj-157" target="NSBeQm-b7BAjYkCCzyBj-152">
          <mxGeometry width="160" relative="1" as="geometry">
            <mxPoint x="270.5102040816323" y="-700" as="sourcePoint" />
            <mxPoint x="250" y="-580" as="targetPoint" />
          </mxGeometry>
        </mxCell>
        <mxCell id="NSBeQm-b7BAjYkCCzyBj-156" value="" style="shape=table;startSize=0;container=1;collapsible=0;childLayout=tableLayout;" vertex="1" parent="1">
          <mxGeometry x="215" y="-560" width="120" height="40" as="geometry" />
        </mxCell>
        <mxCell id="NSBeQm-b7BAjYkCCzyBj-157" value="" style="shape=tableRow;horizontal=0;startSize=0;swimlaneHead=0;swimlaneBody=0;top=0;left=0;bottom=0;right=0;collapsible=0;dropTarget=0;fillColor=#b1ddf0;points=[[0,0.5],[1,0.5]];portConstraint=eastwest;strokeColor=#10739e;" vertex="1" parent="NSBeQm-b7BAjYkCCzyBj-156">
          <mxGeometry width="120" height="40" as="geometry" />
        </mxCell>
        <mxCell id="NSBeQm-b7BAjYkCCzyBj-158" value="Allocator&amp;lt;T&amp;gt;" style="shape=partialRectangle;html=1;whiteSpace=wrap;connectable=0;strokeColor=inherit;overflow=hidden;fillColor=none;top=0;left=0;bottom=0;right=0;pointerEvents=1;" vertex="1" parent="NSBeQm-b7BAjYkCCzyBj-157">
          <mxGeometry width="120" height="40" as="geometry">
            <mxRectangle width="120" height="40" as="alternateBounds" />
          </mxGeometry>
        </mxCell>
        <mxCell id="NSBeQm-b7BAjYkCCzyBj-159" value="&lt;h1&gt;Allocator&lt;/h1&gt;&lt;div&gt;通过memory_pool实现的内存分配器。&lt;/div&gt;&lt;div&gt;&lt;span style=&quot;background-color: initial;&quot;&gt;&lt;br&gt;&lt;/span&gt;&lt;/div&gt;&lt;div&gt;&lt;span style=&quot;background-color: initial;&quot;&gt;实现以类型为基本单元的内存管理&lt;/span&gt;&lt;/div&gt;" style="text;html=1;spacing=5;spacingTop=-20;whiteSpace=wrap;overflow=hidden;rounded=0;fillColor=#dae8fc;strokeColor=#6c8ebf;fontFamily=Helvetica;fontSize=12;fontColor=default;" vertex="1" parent="1">
          <mxGeometry x="930" y="-580" width="297.5" height="100" as="geometry" />
        </mxCell>
      </root>
    </mxGraphModel>
  </diagram>
</mxfile>
